<svg xmlns="http://www.w3.org/2000/svg" viewBox="0 0 400 300" width="400" height="300">
<style>
  text { font-family: Arial, sans-serif; }
  .title { font-size: 14px; font-weight: bold; fill: #1A1A2E; }
  .subtitle { font-size: 11px; fill: #555; }
  .label { font-size: 9px; fill: #333; }
  .axis-label { font-size: 10px; fill: #666; }
  .ring-label { font-size: 8px; font-style: italic; }
  .value { font-size: 8px; fill: #444; font-family: Consolas, monospace; }
  .carrier-label { font-size: 8px; }
</style>
<rect width="400" height="300" fill="white"/>
<text x="200.0" y="18" class="title" text-anchor="middle">2006 — CLR Profile</text>
<text x="200.0" y="34" class="subtitle" text-anchor="middle">H_s=0.227 Hs-2 | Anisotropy=155.7:1</text>
<line x1="70" y1="147.5" x2="380" y2="147.5" stroke="#E53935" stroke-width="1" stroke-dasharray="4,2"/>
<rect x="76.45833333333333" y="147.5" width="25.833333333333332" height="21.967331158424354" fill="#E64A19" opacity="0.8"/>
<text x="89.375" y="265" class="value" text-anchor="middle" transform="rotate(-45,89.375,265)">Bioe</text>
<text x="89.375" y="179.46733115842434" class="value" text-anchor="middle">-0.82</text>
<rect x="115.20833333333333" y="98.13754427931207" width="25.833333333333332" height="49.36245572068793" fill="#424242" opacity="0.8"/>
<text x="128.125" y="265" class="value" text-anchor="middle" transform="rotate(-45,128.125,265)">Coal</text>
<text x="128.125" y="93.13754427931207" class="value" text-anchor="middle">+1.85</text>
<rect x="153.95833333333334" y="100.9665869982398" width="25.833333333333332" height="46.533413001760195" fill="#1565C0" opacity="0.8"/>
<text x="166.875" y="265" class="value" text-anchor="middle" transform="rotate(-45,166.875,265)">Gas</text>
<text x="166.875" y="95.9665869982398" class="value" text-anchor="middle">+1.74</text>
<rect x="192.70833333333334" y="131.6307788146307" width="25.833333333333332" height="15.869221185369303" fill="#0097A7" opacity="0.8"/>
<text x="205.625" y="265" class="value" text-anchor="middle" transform="rotate(-45,205.625,265)">Hydr</text>
<text x="205.625" y="126.6307788146307" class="value" text-anchor="middle">+0.59</text>
<rect x="231.45833333333334" y="98.74911137304503" width="25.833333333333332" height="48.75088862695498" fill="#7B1FA2" opacity="0.8"/>
<text x="244.375" y="265" class="value" text-anchor="middle" transform="rotate(-45,244.375,265)">Nucl</text>
<text x="244.375" y="93.74911137304503" class="value" text-anchor="middle">+1.83</text>
<rect x="270.2083333333333" y="116.89679741657426" width="25.833333333333332" height="30.603202583425745" fill="#795548" opacity="0.8"/>
<text x="283.125" y="265" class="value" text-anchor="middle" transform="rotate(-45,283.125,265)">Othe</text>
<text x="283.125" y="111.89679741657426" class="value" text-anchor="middle">+1.15</text>
<rect x="308.9583333333333" y="147.5" width="25.833333333333332" height="85.41666666666667" fill="#F9A825" opacity="0.8"/>
<text x="321.875" y="265" class="value" text-anchor="middle" transform="rotate(-45,321.875,265)">Sola</text>
<text x="321.875" y="242.91666666666669" class="value" text-anchor="middle">-3.20</text>
<rect x="347.7083333333333" y="147.5" width="25.833333333333332" height="83.7351832931071" fill="#2E7D32" opacity="0.8"/>
<text x="360.625" y="265" class="value" text-anchor="middle" transform="rotate(-45,360.625,265)">Wind</text>
<text x="360.625" y="241.2351832931071" class="value" text-anchor="middle">-3.14</text>
</svg>