<svg xmlns="http://www.w3.org/2000/svg" viewBox="0 0 400 300" width="400" height="300">
<style>
  text { font-family: Arial, sans-serif; }
  .title { font-size: 14px; font-weight: bold; fill: #1A1A2E; }
  .subtitle { font-size: 11px; fill: #555; }
  .label { font-size: 9px; fill: #333; }
  .axis-label { font-size: 10px; fill: #666; }
  .ring-label { font-size: 8px; font-style: italic; }
  .value { font-size: 8px; fill: #444; font-family: Consolas, monospace; }
  .carrier-label { font-size: 8px; }
</style>
<rect width="400" height="300" fill="white"/>
<text x="200.0" y="18" class="title" text-anchor="middle">2025 — CLR Profile</text>
<text x="200.0" y="34" class="subtitle" text-anchor="middle">H_s=0.198 Hs-2 | Anisotropy=26.3:1</text>
<line x1="70" y1="147.5" x2="380" y2="147.5" stroke="#E53935" stroke-width="1" stroke-dasharray="4,2"/>
<rect x="76.45833333333333" y="147.5" width="25.833333333333332" height="16.729980092410308" fill="#E64A19" opacity="0.8"/>
<text x="89.375" y="265" class="value" text-anchor="middle" transform="rotate(-45,89.375,265)">Bioe</text>
<text x="89.375" y="174.2299800924103" class="value" text-anchor="middle">-0.35</text>
<rect x="115.20833333333333" y="79.42186505954541" width="25.833333333333332" height="68.07813494045459" fill="#424242" opacity="0.8"/>
<text x="128.125" y="265" class="value" text-anchor="middle" transform="rotate(-45,128.125,265)">Coal</text>
<text x="128.125" y="74.42186505954541" class="value" text-anchor="middle">+1.44</text>
<rect x="153.95833333333334" y="78.36083543730189" width="25.833333333333332" height="69.13916456269811" fill="#1565C0" opacity="0.8"/>
<text x="166.875" y="265" class="value" text-anchor="middle" transform="rotate(-45,166.875,265)">Gas</text>
<text x="166.875" y="73.36083543730189" class="value" text-anchor="middle">+1.46</text>
<rect x="192.70833333333334" y="147.5" width="25.833333333333332" height="2.693384175736272" fill="#0097A7" opacity="0.8"/>
<text x="205.625" y="265" class="value" text-anchor="middle" transform="rotate(-45,205.625,265)">Hydr</text>
<text x="205.625" y="160.19338417573627" class="value" text-anchor="middle">-0.06</text>
<rect x="231.45833333333334" y="138.77161207966174" width="25.833333333333332" height="8.728387920338252" fill="#7B1FA2" opacity="0.8"/>
<text x="244.375" y="265" class="value" text-anchor="middle" transform="rotate(-45,244.375,265)">Nucl</text>
<text x="244.375" y="133.77161207966174" class="value" text-anchor="middle">+0.18</text>
<rect x="270.2083333333333" y="147.5" width="25.833333333333332" height="53.21333327108963" fill="#795548" opacity="0.8"/>
<text x="283.125" y="265" class="value" text-anchor="middle" transform="rotate(-45,283.125,265)">Othe</text>
<text x="283.125" y="210.71333327108962" class="value" text-anchor="middle">-1.13</text>
<rect x="308.9583333333333" y="135.3923232175881" width="25.833333333333332" height="12.107676782411875" fill="#F9A825" opacity="0.8"/>
<text x="321.875" y="265" class="value" text-anchor="middle" transform="rotate(-45,321.875,265)">Sola</text>
<text x="321.875" y="130.3923232175881" class="value" text-anchor="middle">+0.26</text>
<rect x="347.7083333333333" y="147.5" width="25.833333333333332" height="85.41666666666666" fill="#2E7D32" opacity="0.8"/>
<text x="360.625" y="265" class="value" text-anchor="middle" transform="rotate(-45,360.625,265)">Wind</text>
<text x="360.625" y="242.91666666666666" class="value" text-anchor="middle">-1.81</text>
</svg>