<svg xmlns="http://www.w3.org/2000/svg" viewBox="0 0 400 300" width="400" height="300">
<style>
  text { font-family: Arial, sans-serif; }
  .title { font-size: 14px; font-weight: bold; fill: #1A1A2E; }
  .subtitle { font-size: 11px; fill: #555; }
  .label { font-size: 9px; fill: #333; }
  .axis-label { font-size: 10px; fill: #666; }
  .ring-label { font-size: 8px; font-style: italic; }
  .value { font-size: 8px; fill: #444; font-family: Consolas, monospace; }
  .carrier-label { font-size: 8px; }
</style>
<rect width="400" height="300" fill="white"/>
<text x="200.0" y="18" class="title" text-anchor="middle">2014 — CLR Profile</text>
<text x="200.0" y="34" class="subtitle" text-anchor="middle">H_s=0.341 Hs-3 | Anisotropy=450880000.0:1</text>
<line x1="70" y1="147.5" x2="380" y2="147.5" stroke="#E53935" stroke-width="1" stroke-dasharray="4,2"/>
<rect x="76.45833333333333" y="140.72052933465534" width="25.833333333333332" height="6.779470665344658" fill="#E64A19" opacity="0.8"/>
<text x="89.375" y="265" class="value" text-anchor="middle" transform="rotate(-45,89.375,265)">Bioe</text>
<text x="89.375" y="135.72052933465534" class="value" text-anchor="middle">+1.25</text>
<rect x="115.20833333333333" y="125.99735794032942" width="25.833333333333332" height="21.502642059670578" fill="#424242" opacity="0.8"/>
<text x="128.125" y="265" class="value" text-anchor="middle" transform="rotate(-45,128.125,265)">Coal</text>
<text x="128.125" y="120.99735794032942" class="value" text-anchor="middle">+3.96</text>
<rect x="153.95833333333334" y="124.70822841793877" width="25.833333333333332" height="22.791771582061234" fill="#1565C0" opacity="0.8"/>
<text x="166.875" y="265" class="value" text-anchor="middle" transform="rotate(-45,166.875,265)">Gas</text>
<text x="166.875" y="119.70822841793877" class="value" text-anchor="middle">+4.20</text>
<rect x="192.70833333333334" y="133.98335127302673" width="25.833333333333332" height="13.516648726973276" fill="#0097A7" opacity="0.8"/>
<text x="205.625" y="265" class="value" text-anchor="middle" transform="rotate(-45,205.625,265)">Hydr</text>
<text x="205.625" y="128.98335127302673" class="value" text-anchor="middle">+2.49</text>
<rect x="231.45833333333334" y="147.5" width="25.833333333333332" height="85.41666666666666" fill="#7B1FA2" opacity="0.8"/>
<text x="244.375" y="265" class="value" text-anchor="middle" transform="rotate(-45,244.375,265)">Nucl</text>
<text x="244.375" y="242.91666666666666" class="value" text-anchor="middle">-15.73</text>
<rect x="270.2083333333333" y="131.791523577852" width="25.833333333333332" height="15.70847642214802" fill="#795548" opacity="0.8"/>
<text x="283.125" y="265" class="value" text-anchor="middle" transform="rotate(-45,283.125,265)">Othe</text>
<text x="283.125" y="126.79152357785199" class="value" text-anchor="middle">+2.89</text>
<rect x="308.9583333333333" y="140.73894502280257" width="25.833333333333332" height="6.761054977197418" fill="#F9A825" opacity="0.8"/>
<text x="321.875" y="265" class="value" text-anchor="middle" transform="rotate(-45,321.875,265)">Sola</text>
<text x="321.875" y="135.73894502280257" class="value" text-anchor="middle">+1.25</text>
<rect x="347.7083333333333" y="147.5" width="25.833333333333332" height="1.6433977667285329" fill="#2E7D32" opacity="0.8"/>
<text x="360.625" y="265" class="value" text-anchor="middle" transform="rotate(-45,360.625,265)">Wind</text>
<text x="360.625" y="159.14339776672853" class="value" text-anchor="middle">-0.30</text>
</svg>