<svg xmlns="http://www.w3.org/2000/svg" viewBox="0 0 400 300" width="400" height="300">
<style>
  text { font-family: Arial, sans-serif; }
  .title { font-size: 14px; font-weight: bold; fill: #1A1A2E; }
  .subtitle { font-size: 11px; fill: #555; }
  .label { font-size: 9px; fill: #333; }
  .axis-label { font-size: 10px; fill: #666; }
  .ring-label { font-size: 8px; font-style: italic; }
  .value { font-size: 8px; fill: #444; font-family: Consolas, monospace; }
  .carrier-label { font-size: 8px; }
</style>
<rect width="400" height="300" fill="white"/>
<text x="200.0" y="18" class="title" text-anchor="middle">2001 — CLR Profile</text>
<text x="200.0" y="34" class="subtitle" text-anchor="middle">H_s=0.240 Hs-2 | Anisotropy=1282.2:1</text>
<line x1="70" y1="147.5" x2="380" y2="147.5" stroke="#E53935" stroke-width="1" stroke-dasharray="4,2"/>
<rect x="76.45833333333333" y="147.5" width="25.833333333333332" height="10.74664749558275" fill="#E64A19" opacity="0.8"/>
<text x="89.375" y="265" class="value" text-anchor="middle" transform="rotate(-45,89.375,265)">Bioe</text>
<text x="89.375" y="168.24664749558275" class="value" text-anchor="middle">-0.60</text>
<rect x="115.20833333333333" y="108.66978001760981" width="25.833333333333332" height="38.83021998239018" fill="#424242" opacity="0.8"/>
<text x="128.125" y="265" class="value" text-anchor="middle" transform="rotate(-45,128.125,265)">Coal</text>
<text x="128.125" y="103.66978001760981" class="value" text-anchor="middle">+2.16</text>
<rect x="153.95833333333334" y="108.4862478994294" width="25.833333333333332" height="39.0137521005706" fill="#1565C0" opacity="0.8"/>
<text x="166.875" y="265" class="value" text-anchor="middle" transform="rotate(-45,166.875,265)">Gas</text>
<text x="166.875" y="103.4862478994294" class="value" text-anchor="middle">+2.17</text>
<rect x="192.70833333333334" y="129.05468984330724" width="25.833333333333332" height="18.445310156692763" fill="#0097A7" opacity="0.8"/>
<text x="205.625" y="265" class="value" text-anchor="middle" transform="rotate(-45,205.625,265)">Hydr</text>
<text x="205.625" y="124.05468984330724" class="value" text-anchor="middle">+1.03</text>
<rect x="231.45833333333334" y="104.48781305675487" width="25.833333333333332" height="43.01218694324512" fill="#7B1FA2" opacity="0.8"/>
<text x="244.375" y="265" class="value" text-anchor="middle" transform="rotate(-45,244.375,265)">Nucl</text>
<text x="244.375" y="99.48781305675487" class="value" text-anchor="middle">+2.40</text>
<rect x="270.2083333333333" y="117.66088859371973" width="25.833333333333332" height="29.839111406280267" fill="#795548" opacity="0.8"/>
<text x="283.125" y="265" class="value" text-anchor="middle" transform="rotate(-45,283.125,265)">Othe</text>
<text x="283.125" y="112.66088859371973" class="value" text-anchor="middle">+1.66</text>
<rect x="308.9583333333333" y="147.5" width="25.833333333333332" height="72.97726642692946" fill="#F9A825" opacity="0.8"/>
<text x="321.875" y="265" class="value" text-anchor="middle" transform="rotate(-45,321.875,265)">Sola</text>
<text x="321.875" y="230.47726642692948" class="value" text-anchor="middle">-4.07</text>
<rect x="347.7083333333333" y="147.5" width="25.833333333333332" height="85.41666666666667" fill="#2E7D32" opacity="0.8"/>
<text x="360.625" y="265" class="value" text-anchor="middle" transform="rotate(-45,360.625,265)">Wind</text>
<text x="360.625" y="242.91666666666669" class="value" text-anchor="middle">-4.76</text>
</svg>