<svg xmlns="http://www.w3.org/2000/svg" viewBox="0 0 400 300" width="400" height="300">
<style>
  text { font-family: Arial, sans-serif; }
  .title { font-size: 14px; font-weight: bold; fill: #1A1A2E; }
  .subtitle { font-size: 11px; fill: #555; }
  .label { font-size: 9px; fill: #333; }
  .axis-label { font-size: 10px; fill: #666; }
  .ring-label { font-size: 8px; font-style: italic; }
  .value { font-size: 8px; fill: #444; font-family: Consolas, monospace; }
  .carrier-label { font-size: 8px; }
</style>
<rect width="400" height="300" fill="white"/>
<text x="200.0" y="18" class="title" text-anchor="middle">2003 — CLR Profile</text>
<text x="200.0" y="34" class="subtitle" text-anchor="middle">H_s=0.223 Hs-2 | Anisotropy=351.9:1</text>
<line x1="70" y1="147.5" x2="380" y2="147.5" stroke="#E53935" stroke-width="1" stroke-dasharray="4,2"/>
<rect x="76.45833333333333" y="147.5" width="25.833333333333332" height="16.88292536723649" fill="#E64A19" opacity="0.8"/>
<text x="89.375" y="265" class="value" text-anchor="middle" transform="rotate(-45,89.375,265)">Bioe</text>
<text x="89.375" y="174.38292536723648" class="value" text-anchor="middle">-0.76</text>
<rect x="115.20833333333333" y="102.02692587703729" width="25.833333333333332" height="45.47307412296271" fill="#424242" opacity="0.8"/>
<text x="128.125" y="265" class="value" text-anchor="middle" transform="rotate(-45,128.125,265)">Coal</text>
<text x="128.125" y="97.02692587703729" class="value" text-anchor="middle">+2.04</text>
<rect x="153.95833333333334" y="103.52531371308964" width="25.833333333333332" height="43.974686286910355" fill="#1565C0" opacity="0.8"/>
<text x="166.875" y="265" class="value" text-anchor="middle" transform="rotate(-45,166.875,265)">Gas</text>
<text x="166.875" y="98.52531371308964" class="value" text-anchor="middle">+1.97</text>
<rect x="192.70833333333334" y="127.70074510442109" width="25.833333333333332" height="19.79925489557892" fill="#0097A7" opacity="0.8"/>
<text x="205.625" y="265" class="value" text-anchor="middle" transform="rotate(-45,205.625,265)">Hydr</text>
<text x="205.625" y="122.70074510442109" class="value" text-anchor="middle">+0.89</text>
<rect x="231.45833333333334" y="107.35182404669965" width="25.833333333333332" height="40.14817595330035" fill="#7B1FA2" opacity="0.8"/>
<text x="244.375" y="265" class="value" text-anchor="middle" transform="rotate(-45,244.375,265)">Nucl</text>
<text x="244.375" y="102.35182404669965" class="value" text-anchor="middle">+1.80</text>
<rect x="270.2083333333333" y="112.19342914366862" width="25.833333333333332" height="35.30657085633137" fill="#795548" opacity="0.8"/>
<text x="283.125" y="265" class="value" text-anchor="middle" transform="rotate(-45,283.125,265)">Othe</text>
<text x="283.125" y="107.19342914366862" class="value" text-anchor="middle">+1.58</text>
<rect x="308.9583333333333" y="147.5" width="25.833333333333332" height="82.40217008118054" fill="#F9A825" opacity="0.8"/>
<text x="321.875" y="265" class="value" text-anchor="middle" transform="rotate(-45,321.875,265)">Sola</text>
<text x="321.875" y="239.90217008118054" class="value" text-anchor="middle">-3.69</text>
<rect x="347.7083333333333" y="147.5" width="25.833333333333332" height="85.41666666666666" fill="#2E7D32" opacity="0.8"/>
<text x="360.625" y="265" class="value" text-anchor="middle" transform="rotate(-45,360.625,265)">Wind</text>
<text x="360.625" y="242.91666666666666" class="value" text-anchor="middle">-3.83</text>
</svg>