<svg xmlns="http://www.w3.org/2000/svg" viewBox="0 0 400 300" width="400" height="300">
<style>
  text { font-family: Arial, sans-serif; }
  .title { font-size: 14px; font-weight: bold; fill: #1A1A2E; }
  .subtitle { font-size: 11px; fill: #555; }
  .label { font-size: 9px; fill: #333; }
  .axis-label { font-size: 10px; fill: #666; }
  .ring-label { font-size: 8px; font-style: italic; }
  .value { font-size: 8px; fill: #444; font-family: Consolas, monospace; }
  .carrier-label { font-size: 8px; }
</style>
<rect width="400" height="300" fill="white"/>
<text x="200.0" y="18" class="title" text-anchor="middle">2020 — CLR Profile</text>
<text x="200.0" y="34" class="subtitle" text-anchor="middle">H_s=0.280 Hs-2 | Anisotropy=48.7:1</text>
<line x1="70" y1="147.5" x2="380" y2="147.5" stroke="#E53935" stroke-width="1" stroke-dasharray="4,2"/>
<rect x="76.45833333333333" y="147.5" width="25.833333333333332" height="30.6973751584719" fill="#E64A19" opacity="0.8"/>
<text x="89.375" y="265" class="value" text-anchor="middle" transform="rotate(-45,89.375,265)">Bioe</text>
<text x="89.375" y="188.1973751584719" class="value" text-anchor="middle">-0.72</text>
<rect x="115.20833333333333" y="75.22957210191001" width="25.833333333333332" height="72.27042789808999" fill="#424242" opacity="0.8"/>
<text x="128.125" y="265" class="value" text-anchor="middle" transform="rotate(-45,128.125,265)">Coal</text>
<text x="128.125" y="70.22957210191001" class="value" text-anchor="middle">+1.70</text>
<rect x="153.95833333333334" y="67.34109339908754" width="25.833333333333332" height="80.15890660091246" fill="#1565C0" opacity="0.8"/>
<text x="166.875" y="265" class="value" text-anchor="middle" transform="rotate(-45,166.875,265)">Gas</text>
<text x="166.875" y="62.34109339908754" class="value" text-anchor="middle">+1.88</text>
<rect x="192.70833333333334" y="137.82057044783474" width="25.833333333333332" height="9.679429552165255" fill="#0097A7" opacity="0.8"/>
<text x="205.625" y="265" class="value" text-anchor="middle" transform="rotate(-45,205.625,265)">Hydr</text>
<text x="205.625" y="132.82057044783474" class="value" text-anchor="middle">+0.23</text>
<rect x="231.45833333333334" y="147.5" width="25.833333333333332" height="15.878177243919481" fill="#7B1FA2" opacity="0.8"/>
<text x="244.375" y="265" class="value" text-anchor="middle" transform="rotate(-45,244.375,265)">Nucl</text>
<text x="244.375" y="173.37817724391948" class="value" text-anchor="middle">-0.37</text>
<rect x="270.2083333333333" y="147.5" width="25.833333333333332" height="38.464229102816184" fill="#795548" opacity="0.8"/>
<text x="283.125" y="265" class="value" text-anchor="middle" transform="rotate(-45,283.125,265)">Othe</text>
<text x="283.125" y="195.96422910281618" class="value" text-anchor="middle">-0.90</text>
<rect x="308.9583333333333" y="139.15231587929338" width="25.833333333333332" height="8.347684120706617" fill="#F9A825" opacity="0.8"/>
<text x="321.875" y="265" class="value" text-anchor="middle" transform="rotate(-45,321.875,265)">Sola</text>
<text x="321.875" y="134.15231587929338" class="value" text-anchor="middle">+0.20</text>
<rect x="347.7083333333333" y="147.5" width="25.833333333333332" height="85.41666666666667" fill="#2E7D32" opacity="0.8"/>
<text x="360.625" y="265" class="value" text-anchor="middle" transform="rotate(-45,360.625,265)">Wind</text>
<text x="360.625" y="242.91666666666669" class="value" text-anchor="middle">-2.00</text>
</svg>