<svg xmlns="http://www.w3.org/2000/svg" viewBox="0 0 400 300" width="400" height="300">
<style>
  text { font-family: Arial, sans-serif; }
  .title { font-size: 14px; font-weight: bold; fill: #1A1A2E; }
  .subtitle { font-size: 11px; fill: #555; }
  .label { font-size: 9px; fill: #333; }
  .axis-label { font-size: 10px; fill: #666; }
  .ring-label { font-size: 8px; font-style: italic; }
  .value { font-size: 8px; fill: #444; font-family: Consolas, monospace; }
  .carrier-label { font-size: 8px; }
</style>
<rect width="400" height="300" fill="white"/>
<text x="200.0" y="18" class="title" text-anchor="middle">2009 — CLR Profile</text>
<text x="200.0" y="34" class="subtitle" text-anchor="middle">H_s=0.247 Hs-2 | Anisotropy=106.5:1</text>
<line x1="70" y1="147.5" x2="380" y2="147.5" stroke="#E53935" stroke-width="1" stroke-dasharray="4,2"/>
<rect x="76.45833333333333" y="147.5" width="25.833333333333332" height="27.785667906744198" fill="#E64A19" opacity="0.8"/>
<text x="89.375" y="265" class="value" text-anchor="middle" transform="rotate(-45,89.375,265)">Bioe</text>
<text x="89.375" y="185.2856679067442" class="value" text-anchor="middle">-0.91</text>
<rect x="115.20833333333333" y="92.31084552564758" width="25.833333333333332" height="55.18915447435243" fill="#424242" opacity="0.8"/>
<text x="128.125" y="265" class="value" text-anchor="middle" transform="rotate(-45,128.125,265)">Coal</text>
<text x="128.125" y="87.31084552564758" class="value" text-anchor="middle">+1.82</text>
<rect x="153.95833333333334" y="91.10461603831472" width="25.833333333333332" height="56.39538396168528" fill="#1565C0" opacity="0.8"/>
<text x="166.875" y="265" class="value" text-anchor="middle" transform="rotate(-45,166.875,265)">Gas</text>
<text x="166.875" y="86.10461603831472" class="value" text-anchor="middle">+1.86</text>
<rect x="192.70833333333334" y="137.51964396510633" width="25.833333333333332" height="9.980356034893681" fill="#0097A7" opacity="0.8"/>
<text x="205.625" y="265" class="value" text-anchor="middle" transform="rotate(-45,205.625,265)">Hydr</text>
<text x="205.625" y="132.51964396510633" class="value" text-anchor="middle">+0.33</text>
<rect x="231.45833333333334" y="96.19235454938806" width="25.833333333333332" height="51.307645450611936" fill="#7B1FA2" opacity="0.8"/>
<text x="244.375" y="265" class="value" text-anchor="middle" transform="rotate(-45,244.375,265)">Nucl</text>
<text x="244.375" y="91.19235454938806" class="value" text-anchor="middle">+1.69</text>
<rect x="270.2083333333333" y="125.32080915336213" width="25.833333333333332" height="22.179190846637862" fill="#795548" opacity="0.8"/>
<text x="283.125" y="265" class="value" text-anchor="middle" transform="rotate(-45,283.125,265)">Othe</text>
<text x="283.125" y="120.32080915336213" class="value" text-anchor="middle">+0.73</text>
<rect x="308.9583333333333" y="147.5" width="25.833333333333332" height="85.41666666666667" fill="#F9A825" opacity="0.8"/>
<text x="321.875" y="265" class="value" text-anchor="middle" transform="rotate(-45,321.875,265)">Sola</text>
<text x="321.875" y="242.91666666666669" class="value" text-anchor="middle">-2.81</text>
<rect x="347.7083333333333" y="147.5" width="25.833333333333332" height="81.84939619477035" fill="#2E7D32" opacity="0.8"/>
<text x="360.625" y="265" class="value" text-anchor="middle" transform="rotate(-45,360.625,265)">Wind</text>
<text x="360.625" y="239.34939619477035" class="value" text-anchor="middle">-2.69</text>
</svg>